<?xml version="1.0" encoding="UTF-8" standalone="no"?>
<!-- Created with Inkscape (http://www.inkscape.org/) -->

<svg
   xmlns:dc="http://purl.org/dc/elements/1.1/"
   xmlns:cc="http://creativecommons.org/ns#"
   xmlns:rdf="http://www.w3.org/1999/02/22-rdf-syntax-ns#"
   xmlns:svg="http://www.w3.org/2000/svg"
   xmlns="http://www.w3.org/2000/svg"
   xmlns:xlink="http://www.w3.org/1999/xlink"
   xmlns:sodipodi="http://sodipodi.sourceforge.net/DTD/sodipodi-0.dtd"
   xmlns:inkscape="http://www.inkscape.org/namespaces/inkscape"
   id="svg2"
   sodipodi:docname="arrow_right.svg"
   inkscape:export-filename="/datas/wiki/arrow_orange_right.png"
   viewBox="0 0 38 36"
   sodipodi:version="0.32"
   inkscape:export-xdpi="90.000000"
   version="1.0"
   inkscape:output_extension="org.inkscape.output.svg.inkscape"
   inkscape:export-ydpi="90.000000"
   inkscape:version="0.91pre2 r13516">
  <defs
     id="defs4">
    <linearGradient
       id="linearGradient1552">
      <stop
         id="stop1554"
         style="stop-color:#f9cc84"
         offset="0" />
      <stop
         id="stop1556"
         style="stop-color:#fed27f"
         offset="1" />
    </linearGradient>
    <radialGradient
       id="radialGradient1428"
       gradientUnits="userSpaceOnUse"
       cy=".40530"
       cx="-18.3"
       gradientTransform="matrix(-0.1316,1.117,-1.0576,-0.12462,33.357,39.585)"
       r="17.1"
       inkscape:collect="always">
      <stop
         id="stop1427"
         style="stop-color:#f0d81f"
         offset="0" />
      <stop
         id="stop1429"
         style="stop-color:#f07d0a"
         offset="1" />
    </radialGradient>
    <linearGradient
       id="linearGradient1427"
       y2="16.238"
       xlink:href="#linearGradient1552"
       gradientUnits="userSpaceOnUse"
       x2="30.302"
       gradientTransform="matrix(0,1,1,0,0.038,0.0077)"
       y1="47.962"
       x1="36.312"
       inkscape:collect="always" />
    <linearGradient
       id="linearGradient1435"
       y2="47.922"
       xlink:href="#linearGradient1552"
       gradientUnits="userSpaceOnUse"
       x2="27.857"
       gradientTransform="matrix(0,1,1,0,0,-0.02652)"
       y1="16.238"
       x1="32"
       inkscape:collect="always" />
    <linearGradient
       id="linearGradient1440"
       y2="47.922"
       gradientUnits="userSpaceOnUse"
       x2="27.857"
       gradientTransform="matrix(0,1,1,0,0,0)"
       y1="16.238"
       x1="32"
       inkscape:collect="always">
      <stop
         id="stop1520"
         style="stop-color:#f3ac39;stop-opacity:.62876"
         offset="0" />
      <stop
         id="stop1522"
         style="stop-color:#fcba94;stop-opacity:.78261"
         offset="1" />
    </linearGradient>
  </defs>
  <sodipodi:namedview
     id="base"
     bordercolor="#666666"
     inkscape:grid-points="true"
     inkscape:pageshadow="2"
     inkscape:window-y="-8"
     pagecolor="#ffffff"
     inkscape:window-height="1028"
     inkscape:grid-bbox="true"
     inkscape:zoom="13.805556"
     inkscape:window-x="-8"
     showgrid="false"
     borderopacity="1.0"
     inkscape:current-layer="layer1"
     inkscape:cx="-4.4325945"
     inkscape:cy="18"
     showguides="false"
     inkscape:window-width="1920"
     inkscape:pageopacity="0.0"
     inkscape:document-units="px"
     inkscape:window-maximized="1">
    <inkscape:grid
       id="GridFromPre046Settings"
       opacity=".2"
       visible="true"
       color="#0000ff"
       enabled="true"
       originy="0px"
       originx="0px"
       empspacing="4"
       spacingy="1px"
       spacingx="1px"
       empopacity="0.4"
       type="xygrid"
       empcolor="#0000ff" />
  </sodipodi:namedview>
  <g
     id="layer1"
     inkscape:label="Calque 1"
     inkscape:groupmode="layer">
    <g
       id="g1428"
       transform="matrix(1.0240796,0,0,0.8453878,-13.335935,-11.696272)">
      <path
         id="path2125"
         sodipodi:nodetypes="ccccsccccsccccc"
         style="fill:#a54005"
         d="m 14,22 c 0,-1 1,-1 1,-1 l 17,0 c 0.049,-1 0,-5 0,-5 0.009,-0.447 0.109,-0.846 0.523,-1.016 0.414,-0.17 0.889,-0.077 1.209,0.235 l 16,16 c 0.422,0.435 0.422,1.127 0,1.562 l -16,16 c -0.32,0.312 -0.795,0.405 -1.209,0.235 C 32.109,48.846 32.009,48.447 32,48 l 0,-5 -17.049,0 c 0,0 -1,0 -1,-1 C 13.951,36 14,28 14,22 Z"
         inkscape:connector-curvature="0" />
      <path
         id="path3636"
         style="fill:url(#radialGradient1428)"
         transform="matrix(0,1,1,0,0,0)"
         d="m 41.781,15.156 c -5.903,0.002 -13.643,0.061 -19.562,0.063 l 0,16.781 c 10e-4,0.649 -0.508,1.186 -1.157,1.219 -1.093,0.053 -4.057,0.008 -4.624,0 L 32,48.781 47.531,33.219 43,33.219 c -0.673,0 -1.219,-0.546 -1.219,-1.219 l 0,-16.844 z"
         inkscape:connector-curvature="0" />
      <path
         id="path1511"
         sodipodi:nodetypes="ccscccsc"
         style="fill:url(#linearGradient1440)"
         d="M 17,41 C 15.969,40.094 16,24 17,23 18,22 31.11,23.122 32,23.094 35,23 33,19 35,20 c 3,2 12,11 12,12 0,1 -9,10 -12,12 -2,1 0,-3 -3,-3.094 C 31.065,40.877 17.969,42.094 17,41 Z"
         inkscape:connector-curvature="0" />
      <path
         id="path1548"
         sodipodi:nodetypes="ccccc"
         style="fill:url(#linearGradient1435)"
         d="m 35,19.973 c 3,2 12,11 12,12 0,1 -5.459,7.027 -8.502,9.027 0,-0.973 3.502,-4 3.502,-9 0,-4 -9,-9 -7,-12.027 z"
         inkscape:connector-curvature="0" />
      <path
         id="path1558"
         sodipodi:nodetypes="cscsccc"
         style="fill:url(#linearGradient1427)"
         d="m 16.276,32.035 c 0.004,-4.262 0.25,-8.531 0.75,-9.031 0.698,-0.699 6.176,-0.4 10.188,-0.157 C 30,23 30,23 27,24 16.521,27.493 18.684,40.082 19.057,41.41 18.05,41.347 17.231,41.235 17.026,41.004 16.511,40.55 16.272,36.297 16.276,32.035 Z"
         inkscape:connector-curvature="0" />
    </g>
  </g>
  <metadata
     id="metadata24">
    <rdf:RDF>
      <cc:Work>
        <dc:format>image/svg+xml</dc:format>
        <dc:type
           rdf:resource="http://purl.org/dc/dcmitype/StillImage" />
        <cc:license
           rdf:resource="http://creativecommons.org/publicdomain/zero/1.0/" />
        <dc:publisher>
          <cc:Agent
             rdf:about="http://openclipart.org/">
            <dc:title>Openclipart</dc:title>
          </cc:Agent>
        </dc:publisher>
        <dc:title>arrow_orange_right</dc:title>
        <dc:date>2008-05-26T11:34:48</dc:date>
        <dc:description />
        <dc:source>https://openclipart.org/detail/16968/arrow_orange_right-by-jean_victor_balin</dc:source>
        <dc:creator>
          <cc:Agent>
            <dc:title>jean_victor_balin</dc:title>
          </cc:Agent>
        </dc:creator>
        <dc:subject>
          <rdf:Bag>
            <rdf:li>arrow</rdf:li>
            <rdf:li>icon</rdf:li>
          </rdf:Bag>
        </dc:subject>
      </cc:Work>
      <cc:License
         rdf:about="http://creativecommons.org/publicdomain/zero/1.0/">
        <cc:permits
           rdf:resource="http://creativecommons.org/ns#Reproduction" />
        <cc:permits
           rdf:resource="http://creativecommons.org/ns#Distribution" />
        <cc:permits
           rdf:resource="http://creativecommons.org/ns#DerivativeWorks" />
      </cc:License>
    </rdf:RDF>
  </metadata>
</svg>
