<?xml version="1.0" encoding="utf-8"?>
<!-- Generator: Adobe Illustrator 17.0.0, SVG Export Plug-In . SVG Version: 6.00 Build 0)  -->
<!DOCTYPE svg PUBLIC "-//W3C//DTD SVG 1.1//EN" "http://www.w3.org/Graphics/SVG/1.1/DTD/svg11.dtd">
<svg version="1.1" id="Layer_1" xmlns="http://www.w3.org/2000/svg" xmlns:xlink="http://www.w3.org/1999/xlink" x="0px" y="0px"
	 width="127.142px" height="162.022px" viewBox="0 0 127.142 162.022" enable-background="new 0 0 127.142 162.022"
	 xml:space="preserve">
<linearGradient id="SVGID_1_" gradientUnits="userSpaceOnUse" x1="72.2492" y1="139.7905" x2="72.2492" y2="161.4761">
	<stop  offset="0" style="stop-color:#070707;stop-opacity:0"/>
	<stop  offset="1" style="stop-color:#000000;stop-opacity:0.15"/>
</linearGradient>
<polygon fill="url(#SVGID_1_)" points="17.356,137.512 49.667,162.022 127.142,137.512 "/>
<linearGradient id="SVGID_2_" gradientUnits="userSpaceOnUse" x1="4.7355" y1="24.8233" x2="95.5943" y2="115.6821">
	<stop  offset="0" style="stop-color:#00CCC6"/>
	<stop  offset="1" style="stop-color:#009BBF"/>
</linearGradient>
<path fill="url(#SVGID_2_)" d="M100.92,50.46C100.92,22.592,78.328,0,50.46,0S0,22.592,0,50.46C0,74.287,15.174,85.64,23.547,96
	c16.655,20.608,22.003,40.594,26.323,65.407c4.387-24.606,9.089-44.799,26.328-64.687C84.569,87.062,100.92,72.644,100.92,50.46z"/>
<g>
	<path fill="#FFFFFF" d="M66,38.293c0,1.04-0.129,2.08-0.388,3.12s-0.687,1.99-1.282,2.85c-0.597,0.86-1.372,1.62-2.326,2.28
		s-2.107,1.15-3.459,1.47v0.36c1.193,0.2,2.328,0.54,3.402,1.02c1.075,0.48,2.01,1.14,2.807,1.98c0.796,0.84,1.423,1.859,1.88,3.06
		c0.458,1.2,0.688,2.62,0.688,4.26c0,2.16-0.46,4.03-1.38,5.61c-0.921,1.581-2.15,2.87-3.69,3.87c-1.541,1-3.291,1.74-5.25,2.22
		c-1.96,0.48-3.981,0.72-6.06,0.72c-0.681,0-1.551,0-2.61,0c-1.06,0-2.2-0.029-3.42-0.09c-1.221-0.06-2.46-0.149-3.72-0.27
		s-2.41-0.3-3.45-0.54v-41.4c0.76-0.12,1.63-0.24,2.61-0.359c0.979-0.12,2.029-0.22,3.15-0.301c1.12-0.079,2.27-0.14,3.45-0.18
		c1.18-0.039,2.35-0.06,3.51-0.06c1.959,0,3.87,0.149,5.73,0.449c1.86,0.301,3.52,0.831,4.98,1.591c1.459,0.76,2.629,1.82,3.51,3.18
		C65.56,34.493,66,36.213,66,38.293z M48.42,46.152c0.56,0,1.209-0.02,1.95-0.059s1.351-0.1,1.83-0.179
		c1.52-0.474,2.83-1.187,3.93-2.137c1.1-0.95,1.65-2.197,1.65-3.741c0-1.029-0.2-1.88-0.6-2.553c-0.4-0.673-0.93-1.207-1.59-1.603
		c-0.66-0.396-1.41-0.673-2.25-0.831c-0.84-0.158-1.72-0.238-2.64-0.238c-1.041,0-2,0.021-2.88,0.061
		c-0.88,0.039-1.56,0.098-2.04,0.177v11.103H48.42z M51.023,64.213c0.981,0,1.934-0.118,2.856-0.356
		c0.922-0.237,1.738-0.604,2.445-1.099c0.707-0.495,1.276-1.118,1.708-1.871c0.432-0.752,0.648-1.644,0.648-2.673
		c0-1.307-0.256-2.337-0.766-3.088c-0.511-0.752-1.178-1.336-2.003-1.753c-0.825-0.416-1.748-0.684-2.769-0.802
		s-2.042-0.179-3.062-0.179H45.78v11.464c0.196,0.08,0.51,0.139,0.942,0.178c0.431,0.04,0.893,0.069,1.384,0.09
		s1.001,0.04,1.532,0.06S50.63,64.213,51.023,64.213z"/>
</g>
</svg>
