<?xml version="1.0" encoding="utf-8"?>
<!-- Generator: Adobe Illustrator 17.0.0, SVG Export Plug-In . SVG Version: 6.00 Build 0)  -->
<!DOCTYPE svg PUBLIC "-//W3C//DTD SVG 1.1//EN" "http://www.w3.org/Graphics/SVG/1.1/DTD/svg11.dtd">
<svg version="1.1" id="Layer_1" xmlns="http://www.w3.org/2000/svg" xmlns:xlink="http://www.w3.org/1999/xlink" x="0px" y="0px"
	 width="305.058px" height="350.954px" viewBox="0 0 305.058 350.954" enable-background="new 0 0 305.058 350.954"
	 xml:space="preserve">
<path opacity="0.2" d="M133.349,348.954l171.708-43.082c0,0-31.629-57.703-144.536-49.72S133.349,348.954,133.349,348.954z"/>
<path id="marker" fill="#E50085" d="M133.349,0C59.703,0,0,59.703,0,133.349c0,127.907,133.349,217.604,133.349,217.604
	s133.349-96.229,133.349-217.604C266.699,59.703,206.996,0,133.349,0z M133.828,199.904c-36.072,0-65.314-29.242-65.314-65.314
	s29.242-65.314,65.314-65.314s65.314,29.242,65.314,65.314S169.9,199.904,133.828,199.904z"/>
</svg>
